<svg width="149" height="31" viewBox="0 0 149 31" fill="none" xmlns="http://www.w3.org/2000/svg">
<path d="M136.023 9.2793C136.511 9.2793 136.962 9.53791 137.208 9.95883L140.067 14.8363C140.601 15.7485 141.92 15.7485 142.454 14.8363L145.315 9.9543C145.56 9.53619 146.008 9.2793 146.493 9.2793V9.2793C147.575 9.2793 148.227 10.4768 147.64 11.3852L143.487 17.816C143.192 18.273 143.192 18.8604 143.487 19.3174L147.631 25.7348C148.222 26.649 147.565 27.8541 146.477 27.8541V27.8541C146.001 27.8541 145.558 27.6073 145.308 27.202L142.438 22.5535C141.897 21.6779 140.624 21.6779 140.083 22.5535L137.216 27.1976C136.964 27.6057 136.518 27.8541 136.039 27.8541V27.8541C134.948 27.8541 134.286 26.65 134.871 25.7291L138.951 19.3088C139.239 18.8559 139.239 18.2775 138.951 17.8246L134.863 11.3908C134.281 10.4758 134.939 9.2793 136.023 9.2793V9.2793Z" fill="#060606"/>
<path d="M123.148 28.2411C121.358 28.2411 119.815 27.846 118.517 27.056C117.227 26.2578 116.231 25.1453 115.53 23.7183C114.836 22.2833 114.49 20.6144 114.49 18.7118C114.49 16.8092 114.836 15.1323 115.53 13.6811C116.231 12.2219 117.207 11.0852 118.456 10.2709C119.714 9.44859 121.181 9.03743 122.858 9.03743C123.825 9.03743 124.781 9.19867 125.724 9.52115C126.667 9.84363 127.526 10.3677 128.3 11.0932C129.074 11.8108 129.691 12.7621 130.15 13.9472C130.61 15.1323 130.839 16.5915 130.839 18.3248V18.3248C130.839 18.9927 130.298 19.5341 129.63 19.5341H117.755C117.074 19.5341 116.521 18.9819 116.521 18.3007V18.3007C116.521 17.6194 117.074 17.0672 117.755 17.0672H126.553C127.318 17.0672 127.957 16.4409 127.804 15.6922C127.7 15.1824 127.535 14.7056 127.308 14.2616C126.897 13.4393 126.309 12.7903 125.543 12.3146C124.785 11.839 123.89 11.6011 122.858 11.6011C121.721 11.6011 120.738 11.8833 119.907 12.4476C119.085 13.0039 118.452 13.7295 118.009 14.6244C117.565 15.5193 117.344 16.4786 117.344 17.5025V19.1472C117.344 20.5499 117.585 21.7391 118.069 22.7146C118.561 23.682 119.242 24.4197 120.113 24.9276C120.984 25.4274 121.995 25.6774 123.148 25.6774C123.898 25.6774 124.575 25.5726 125.18 25.363C125.793 25.1453 126.321 24.8228 126.764 24.3955C126.921 24.2413 127.065 24.074 127.197 23.8936C127.621 23.3132 128.323 22.9243 129.015 23.1185L129.18 23.1647C129.93 23.3752 130.372 24.176 129.977 24.8475C129.731 25.2661 129.434 25.6556 129.086 26.016C128.401 26.7174 127.554 27.2656 126.546 27.6606C125.539 28.0476 124.406 28.2411 123.148 28.2411Z" fill="#060606"/>
<path d="M108.749 3.08769C109.514 3.08769 110.133 3.70721 110.133 4.47142V26.4704C110.133 27.2346 109.514 27.8541 108.749 27.8541H108.663C107.899 27.8541 107.279 27.2346 107.279 26.4704V4.47142C107.279 3.70721 107.899 3.08769 108.663 3.08769H108.749Z" fill="#060606"/>
<path d="M89.0633 27.8541C88.2991 27.8541 87.6795 27.2346 87.6795 26.4704V4.47142C87.6795 3.70721 88.2991 3.08769 89.0633 3.08769H101.199C101.934 3.08769 102.53 3.68326 102.53 4.41792V4.41792C102.53 5.15258 101.934 5.74815 101.199 5.74815H92.0623C91.2981 5.74815 90.6786 6.36766 90.6786 7.13188V12.7328C90.6786 13.497 91.2981 14.1165 92.0623 14.1165H100.087C100.822 14.1165 101.417 14.7121 101.417 15.4467V15.4467C101.417 16.1814 100.822 16.7769 100.087 16.7769H92.0623C91.2981 16.7769 90.6786 17.3965 90.6786 18.1607V26.4704C90.6786 27.2346 90.0591 27.8541 89.2949 27.8541H89.0633Z" fill="#060606"/>
<path d="M65.3913 27.8541C64.6271 27.8541 64.0075 27.2346 64.0075 26.4704V4.47142C64.0075 3.70721 64.6271 3.08769 65.3913 3.08769H74.2382C76.0925 3.08769 77.6928 3.42226 79.0391 4.09141C80.3935 4.75249 81.4376 5.70381 82.1712 6.94535C82.9048 8.17884 83.2717 9.64208 83.2717 11.3351C83.2717 13.0523 82.8968 14.5115 82.147 15.7128C81.3972 16.9059 80.3331 17.8169 78.9545 18.4458C77.5759 19.0665 75.9433 19.3769 74.0568 19.3769H68.9708C68.2066 19.3769 67.5871 18.7574 67.5871 17.9932V16.0444C67.5871 15.2802 68.2066 14.6607 68.9708 14.6607H72.9442C73.8472 14.6607 74.601 14.5438 75.2056 14.31C75.8183 14.0681 76.2819 13.7053 76.5963 13.2216C76.9107 12.7298 77.068 12.101 77.068 11.3351C77.068 10.5692 76.9107 9.93635 76.5963 9.43651C76.2819 8.9286 75.8183 8.54969 75.2056 8.29977C74.5929 8.04178 73.8391 7.91279 72.9442 7.91279H71.3773C70.6131 7.91279 69.9936 8.53231 69.9936 9.29652V26.4704C69.9936 27.2346 69.374 27.8541 68.6098 27.8541H65.3913ZM77.1289 16.5351C77.6355 16.5351 78.1016 16.8119 78.344 17.2568L83.0035 25.8083C83.5059 26.7304 82.8385 27.8541 81.7884 27.8541H78.4176C77.9069 27.8541 77.4377 27.5728 77.1971 27.1224L72.6289 18.5708C72.1365 17.649 72.8044 16.5351 73.8494 16.5351H77.1289Z" fill="#060606"/>
<path d="M48.2482 21.1716C47.5595 20.26 48.2097 18.9537 49.3523 18.9537H50.7359C51.1612 18.9537 51.5629 19.1493 51.8252 19.4841L53.4655 21.5779L56.1622 24.6737L58.4814 27.5337C59.2148 28.4383 58.5711 29.789 57.4066 29.789H55.5391C55.1293 29.789 54.7405 29.6073 54.4776 29.2929L51.9901 26.3183L50.2729 23.8513L48.2482 21.1716ZM60.4794 15.4709C60.4794 18.1958 59.9554 20.5056 58.9073 22.4002C57.8593 24.2947 56.4404 25.7338 54.6506 26.7174C52.8689 27.7009 50.8695 28.1927 48.6525 28.1927C46.4274 28.1927 44.424 27.6969 42.6423 26.7053C40.8606 25.7137 39.4457 24.2746 38.3976 22.3881C37.3576 20.4935 36.8376 18.1878 36.8376 15.4709C36.8376 12.7459 37.3576 10.4362 38.3976 8.54162C39.4457 6.64706 40.8606 5.20799 42.6423 4.22443C44.424 3.24087 46.4274 2.74908 48.6525 2.74908C50.8695 2.74908 52.8689 3.24087 54.6506 4.22443C56.4404 5.20799 57.8593 6.64706 58.9073 8.54162C59.9554 10.4362 60.4794 12.7459 60.4794 15.4709ZM54.3604 15.4709C54.3604 13.8585 54.1306 12.496 53.6711 11.3835C53.2196 10.2709 52.5666 9.42844 51.712 8.85604C50.8655 8.28364 49.8457 7.99744 48.6525 7.99744C47.4674 7.99744 46.4475 8.28364 45.593 8.85604C44.7384 9.42844 44.0813 10.2709 43.6218 11.3835C43.1703 12.496 42.9446 13.8585 42.9446 15.4709C42.9446 17.0833 43.1703 18.4458 43.6218 19.5583C44.0813 20.6709 44.7384 21.5134 45.593 22.0858C46.4475 22.6582 47.4674 22.9444 48.6525 22.9444C49.8457 22.9444 50.8655 22.6582 51.712 22.0858C52.5666 21.5134 53.2196 20.6709 53.6711 19.5583C54.1306 18.4458 54.3604 17.0833 54.3604 15.4709Z" fill="#060606"/>
<path d="M21.3603 21.3603V15.2574C21.3603 14.4147 22.0434 13.7316 22.8861 13.7316C23.7287 13.7316 24.4118 14.4147 24.4118 15.2574V21.3603C24.4118 22.1696 24.0901 22.9455 23.5178 23.5178C22.9456 24.0901 22.1696 24.4118 21.3603 24.4118H15.2574C14.4147 24.4118 13.7316 23.7287 13.7316 22.8861C13.7316 22.0434 14.4147 21.3603 15.2574 21.3603H21.3603Z" fill="black"/>
<path d="M27.4633 7.62869V4.57721C27.4633 4.17256 27.3024 3.7846 27.0163 3.49847C26.7658 3.24803 26.4374 3.09354 26.088 3.05893L25.9375 3.05148H22.8861C22.0434 3.05148 21.3603 2.36838 21.3603 1.52574C21.3603 0.683096 22.0434 0 22.8861 0H25.9375C27.1515 0 28.3154 0.482587 29.1738 1.34098C30.0322 2.19937 30.5148 3.36326 30.5148 4.57721V7.62869C30.5148 8.47133 29.8317 9.15443 28.989 9.15443C28.1464 9.15443 27.4633 8.47133 27.4633 7.62869Z" fill="black"/>
<path d="M21.3603 9.15441V7.62867C21.3603 6.78603 22.0434 6.10294 22.8861 6.10294C23.7287 6.10294 24.4118 6.78603 24.4118 7.62867V9.15441C24.4118 9.99705 23.7287 10.6801 22.8861 10.6801C22.0434 10.6801 21.3603 9.99705 21.3603 9.15441Z" fill="black"/>
<path d="M27.4633 25.9375V22.8861C27.4633 22.0434 28.1464 21.3603 28.989 21.3603C29.8317 21.3603 30.5148 22.0434 30.5148 22.8861V25.9375C30.5148 27.1515 30.0322 28.3154 29.1738 29.1738C28.3154 30.0322 27.1515 30.5147 25.9375 30.5147H22.8861C22.0434 30.5147 21.3603 29.8317 21.3603 28.989C21.3603 28.1464 22.0434 27.4633 22.8861 27.4633H25.9375C26.3422 27.4633 26.7302 27.3024 27.0163 27.0163C27.3024 26.7301 27.4633 26.3422 27.4633 25.9375Z" fill="black"/>
<path d="M0 7.62869V4.57721C0 3.36326 0.482586 2.19937 1.34098 1.34098C2.19937 0.482586 3.36326 0 4.57721 0H7.62869C8.47133 0 9.15443 0.683096 9.15443 1.52574C9.15443 2.36838 8.47133 3.05148 7.62869 3.05148H4.57721C4.17256 3.05148 3.7846 3.21234 3.49847 3.49847C3.21234 3.7846 3.05148 4.17256 3.05148 4.57721V7.62869C3.05148 8.47133 2.36838 9.15443 1.52574 9.15443C0.683096 9.15443 0 8.47133 0 7.62869Z" fill="black"/>
<path d="M7.64359 21.3603C8.48623 21.3603 9.16933 22.0434 9.16933 22.8861C9.16933 23.7287 8.48623 24.4118 7.64359 24.4118H7.62869C6.78605 24.4118 6.10295 23.7287 6.10295 22.8861C6.10295 22.0434 6.78605 21.3603 7.62869 21.3603H7.64359Z" fill="black"/>
<path d="M0 25.9375V22.8861C0 22.0434 0.683096 21.3603 1.52574 21.3603C2.36838 21.3603 3.05148 22.0434 3.05148 22.8861V25.9375L3.05893 26.088C3.09354 26.4374 3.24803 26.7658 3.49847 27.0163C3.7846 27.3024 4.17256 27.4633 4.57721 27.4633H7.62869C8.47133 27.4633 9.15443 28.1464 9.15443 28.989C9.15443 29.8317 8.47133 30.5147 7.62869 30.5147H4.57721C3.36326 30.5147 2.19937 30.0322 1.34098 29.1738C0.482587 28.3154 0 27.1515 0 25.9375Z" fill="black"/>
<path d="M9.09945 9.09945V13.6767H13.6767V9.09945H9.09945ZM16.7281 13.6767C16.7281 15.3619 15.3619 16.7281 13.6767 16.7281H9.09945C7.41417 16.7281 6.04797 15.3619 6.04797 13.6767V9.09945C6.04797 7.41417 7.41417 6.04797 9.09945 6.04797H13.6767C15.3619 6.04797 16.7281 7.41417 16.7281 9.09945V13.6767Z" fill="#060606"/>
</svg>
