<svg width="271" height="56" viewBox="0 0 271 56" fill="none" xmlns="http://www.w3.org/2000/svg">
<path d="M247.397 16.8771C248.284 16.8771 249.105 17.3475 249.554 18.113L254.752 26.9842C255.724 28.6433 258.123 28.6433 259.095 26.9842L264.298 18.1048C264.744 17.3443 265.559 16.8771 266.44 16.8771V16.8771C268.407 16.8771 269.593 19.0551 268.526 20.7073L260.972 32.4036C260.436 33.2347 260.436 34.3032 260.972 35.1343L268.511 46.8062C269.584 48.469 268.391 50.6608 266.411 50.6608V50.6608C265.545 50.6608 264.74 50.212 264.285 49.4748L259.065 41.0202C258.081 39.4275 255.765 39.4275 254.782 41.0202L249.567 49.4668C249.108 50.209 248.298 50.6608 247.426 50.6608V50.6608C245.442 50.6608 244.239 48.4707 245.303 46.7959L252.723 35.1187C253.246 34.295 253.246 33.2429 252.723 32.4192L245.287 20.7174C244.23 19.0532 245.425 16.8771 247.397 16.8771V16.8771Z" fill="#2199FF"/>
<path d="M223.981 51.3646C220.726 51.3646 217.918 50.6462 215.557 49.2092C213.211 47.7575 211.4 45.734 210.124 43.1387C208.863 40.5286 208.233 37.4934 208.233 34.0329C208.233 30.5724 208.863 27.5225 210.124 24.8831C211.4 22.2291 213.174 20.1616 215.447 18.6806C217.735 17.185 220.403 16.4372 223.453 16.4372C225.213 16.4372 226.95 16.7305 228.666 17.317C230.381 17.9035 231.943 18.8566 233.351 20.1763C234.758 21.4813 235.88 23.2115 236.716 25.367C237.552 27.5225 237.97 30.1765 237.97 33.3291V33.3291C237.97 34.5438 236.985 35.5285 235.77 35.5285H214.171C212.932 35.5285 211.928 34.5241 211.928 33.2851V33.2851C211.928 32.046 212.932 31.0416 214.171 31.0416H230.174C231.564 31.0416 232.727 29.9026 232.449 28.5408C232.259 27.6136 231.959 26.7463 231.547 25.9389C230.799 24.4432 229.729 23.2629 228.336 22.3977C226.958 21.5326 225.33 21.1001 223.453 21.1001C221.386 21.1001 219.597 21.6133 218.086 22.6397C216.591 23.6514 215.44 24.9711 214.633 26.5987C213.827 28.2263 213.424 29.9712 213.424 31.8334V34.8247C213.424 37.3761 213.864 39.5389 214.743 41.3131C215.638 43.0727 216.877 44.4143 218.46 45.3381C220.044 46.2472 221.884 46.7018 223.981 46.7018C225.345 46.7018 226.576 46.5112 227.676 46.1299C228.791 45.734 229.751 45.1475 230.557 44.3704C230.843 44.0899 231.106 43.7856 231.345 43.4574C232.116 42.4018 233.394 41.6944 234.652 42.0477L234.952 42.1318C236.316 42.5147 237.12 43.9711 236.402 45.1924C235.954 45.9538 235.414 46.6622 234.78 47.3176C233.534 48.5933 231.994 49.5904 230.162 50.3089C228.329 51.0127 226.268 51.3646 223.981 51.3646Z" fill="#2199FF"/>
<path d="M197.793 5.61585C199.183 5.61585 200.309 6.74262 200.309 8.13257V48.1441C200.309 49.534 199.183 50.6608 197.793 50.6608H197.635C196.245 50.6608 195.119 49.534 195.119 48.1441V8.13257C195.119 6.74263 196.245 5.61585 197.635 5.61585H197.793Z" fill="#2199FF"/>
<path d="M161.988 50.6608C160.598 50.6608 159.471 49.534 159.471 48.1441V8.13257C159.471 6.74263 160.598 5.61585 161.988 5.61585H184.061C185.397 5.61585 186.48 6.69906 186.48 8.03526V8.03526C186.48 9.37146 185.397 10.4547 184.061 10.4547H167.442C166.052 10.4547 164.926 11.5814 164.926 12.9714V23.1582C164.926 24.5482 166.052 25.6749 167.442 25.6749H182.037C183.374 25.6749 184.457 26.7581 184.457 28.0943V28.0943C184.457 29.4305 183.374 30.5138 182.037 30.5138H167.442C166.052 30.5138 164.926 31.6405 164.926 33.0305V48.1441C164.926 49.534 163.799 50.6608 162.409 50.6608H161.988Z" fill="#2199FF"/>
<path d="M118.933 50.6608C117.543 50.6608 116.416 49.534 116.416 48.1441V8.13257C116.416 6.74263 117.543 5.61585 118.933 5.61585H135.024C138.396 5.61585 141.307 6.22437 143.756 7.44141C146.219 8.64378 148.118 10.374 149.452 12.6321C150.787 14.8756 151.454 17.5369 151.454 20.6162C151.454 23.7394 150.772 26.3934 149.408 28.5782C148.045 30.7484 146.109 32.4053 143.602 33.549C141.094 34.6781 138.125 35.2426 134.694 35.2426H125.444C124.054 35.2426 122.927 34.1158 122.927 32.7259V29.1814C122.927 27.7915 124.054 26.6647 125.444 26.6647H132.67C134.313 26.6647 135.684 26.4521 136.783 26.0269C137.898 25.587 138.741 24.9271 139.313 24.0473C139.885 23.1529 140.171 22.0092 140.171 20.6162C140.171 19.2232 139.885 18.0721 139.313 17.163C138.741 16.2392 137.898 15.5501 136.783 15.0955C135.669 14.6263 134.298 14.3917 132.67 14.3917H129.82C128.431 14.3917 127.304 15.5185 127.304 16.9084V48.1441C127.304 49.534 126.177 50.6608 124.787 50.6608H118.933ZM140.281 30.0739C141.203 30.0739 142.051 30.5774 142.491 31.3864L150.966 46.94C151.88 48.617 150.666 50.6608 148.756 50.6608H142.625C141.696 50.6608 140.843 50.1492 140.405 49.3299L132.097 33.7764C131.201 32.0999 132.416 30.0739 134.317 30.0739H140.281Z" fill="#2199FF"/>
<path d="M87.7535 38.5067C86.5008 36.8487 87.6835 34.4728 89.7615 34.4728H92.2781C93.0516 34.4728 93.7822 34.8285 94.2592 35.4374L97.2426 39.2456L102.147 44.8762L106.365 50.0781C107.699 51.7233 106.529 54.18 104.411 54.18H101.014C100.269 54.18 99.5616 53.8495 99.0835 53.2777L94.5592 47.8675L91.436 43.3806L87.7535 38.5067ZM109.999 28.1383C109.999 33.0945 109.046 37.2954 107.14 40.7412C105.234 44.1871 102.653 46.8044 99.3981 48.5933C96.1575 50.3822 92.5211 51.2767 88.4887 51.2767C84.4417 51.2767 80.798 50.3749 77.5574 48.5713C74.3169 46.7678 71.7435 44.1504 69.8373 40.7193C67.9458 37.2734 67 33.0798 67 28.1383C67 23.1822 67.9458 18.9812 69.8373 15.5354C71.7435 12.0896 74.3169 9.47224 77.5574 7.68334C80.798 5.89445 84.4417 5 88.4887 5C92.5211 5 96.1575 5.89445 99.3981 7.68334C102.653 9.47224 105.234 12.0896 107.14 15.5354C109.046 18.9812 109.999 23.1822 109.999 28.1383ZM98.8702 28.1383C98.8702 25.2057 98.4523 22.7277 97.6165 20.7042C96.7954 18.6807 95.6077 17.1484 94.0534 16.1073C92.5138 15.0662 90.6589 14.5457 88.4887 14.5457C86.3333 14.5457 84.4784 15.0662 82.9241 16.1073C81.3698 17.1484 80.1748 18.6807 79.339 20.7042C78.5178 22.7277 78.1073 25.2057 78.1073 28.1383C78.1073 31.0709 78.5178 33.549 79.339 35.5725C80.1748 37.596 81.3698 39.1283 82.9241 40.1694C84.4784 41.2105 86.3333 41.731 88.4887 41.731C90.6589 41.731 92.5138 41.2105 94.0534 40.1694C95.6077 39.1283 96.7954 37.596 97.6165 35.5725C98.4523 33.549 98.8702 31.0709 98.8702 28.1383Z" fill="#2199FF"/>
<path d="M38.85 38.85V27.75C38.85 26.2174 40.0924 24.975 41.625 24.975C43.1576 24.975 44.4 26.2174 44.4 27.75V38.85C44.4 40.3219 43.8149 41.7332 42.774 42.774C41.7332 43.8148 40.3219 44.4 38.85 44.4H27.75C26.2174 44.4 24.975 43.1576 24.975 41.625C24.975 40.0924 26.2174 38.85 27.75 38.85H38.85Z" fill="black"/>
<path d="M49.95 13.875V8.325C49.95 7.58903 49.6574 6.8834 49.137 6.36299C48.6815 5.90749 48.0842 5.62651 47.4487 5.56355L47.175 5.55H41.625C40.0924 5.55 38.85 4.30759 38.85 2.775C38.85 1.24241 40.0924 0 41.625 0H47.175C49.3829 0 51.4998 0.877725 53.061 2.43896C54.6223 4.0002 55.5 6.11707 55.5 8.325V13.875C55.5 15.4076 54.2576 16.65 52.725 16.65C51.1924 16.65 49.95 15.4076 49.95 13.875Z" fill="black"/>
<path d="M38.85 16.65V13.875C38.85 12.3424 40.0924 11.1 41.625 11.1C43.1576 11.1 44.4 12.3424 44.4 13.875V16.65C44.4 18.1826 43.1576 19.425 41.625 19.425C40.0924 19.425 38.85 18.1826 38.85 16.65Z" fill="black"/>
<path d="M49.95 47.175V41.625C49.95 40.0924 51.1924 38.85 52.725 38.85C54.2576 38.85 55.5 40.0924 55.5 41.625V47.175C55.5 49.3829 54.6223 51.4998 53.061 53.061C51.4998 54.6222 49.3829 55.5 47.175 55.5H41.625C40.0924 55.5 38.85 54.2576 38.85 52.725C38.85 51.1924 40.0924 49.95 41.625 49.95H47.175C47.911 49.95 48.6166 49.6574 49.137 49.137C49.6574 48.6166 49.95 47.9109 49.95 47.175Z" fill="black"/>
<path d="M0 13.875V8.325C0 6.11707 0.877724 4.00021 2.43896 2.43896C4.00021 0.877724 6.11707 0 8.325 0H13.875C15.4076 0 16.65 1.24241 16.65 2.775C16.65 4.30759 15.4076 5.55 13.875 5.55H8.325C7.58902 5.55 6.8834 5.84257 6.36299 6.36299C5.84257 6.8834 5.55 7.58902 5.55 8.325V13.875C5.55 15.4076 4.30759 16.65 2.775 16.65C1.24241 16.65 0 15.4076 0 13.875Z" fill="black"/>
<path d="M13.9021 38.85C15.4347 38.85 16.6771 40.0924 16.6771 41.625C16.6771 43.1576 15.4347 44.4 13.9021 44.4H13.875C12.3424 44.4 11.1 43.1576 11.1 41.625C11.1 40.0924 12.3424 38.85 13.875 38.85H13.9021Z" fill="black"/>
<path d="M0 47.175V41.625C0 40.0924 1.24241 38.85 2.775 38.85C4.30759 38.85 5.55 40.0924 5.55 41.625V47.175L5.56355 47.4487C5.62651 48.0842 5.90749 48.6815 6.36299 49.137C6.8834 49.6574 7.58903 49.95 8.325 49.95H13.875C15.4076 49.95 16.65 51.1924 16.65 52.725C16.65 54.2576 15.4076 55.5 13.875 55.5H8.325C6.11707 55.5 4.0002 54.6222 2.43896 53.061C0.877725 51.4998 0 49.3829 0 47.175Z" fill="black"/>
<path d="M16.55 16.55V24.875H24.875V16.55H16.55ZM30.425 24.875C30.425 27.9402 27.9402 30.425 24.875 30.425H16.55C13.4848 30.425 11 27.9402 11 24.875V16.55C11 13.4848 13.4848 11 16.55 11H24.875C27.9402 11 30.425 13.4848 30.425 16.55V24.875Z" fill="#2199FF"/>
</svg>
