<svg width="141" height="36" viewBox="0 0 141 36" fill="none" xmlns="http://www.w3.org/2000/svg">
<path d="M21.3603 24.3603V18.2574C21.3603 17.4147 22.0434 16.7316 22.8861 16.7316C23.7287 16.7316 24.4118 17.4147 24.4118 18.2574V24.3603C24.4118 25.1696 24.0901 25.9455 23.5178 26.5178C22.9456 27.0901 22.1696 27.4118 21.3603 27.4118H15.2574C14.4147 27.4118 13.7316 26.7287 13.7316 25.8861C13.7316 25.0434 14.4147 24.3603 15.2574 24.3603H21.3603Z" fill="black"/>
<path d="M27.4633 10.6287V7.57721C27.4633 7.17256 27.3024 6.7846 27.0163 6.49847C26.7659 6.24803 26.4374 6.09354 26.088 6.05893L25.9375 6.05148H22.8861C22.0434 6.05148 21.3603 5.36838 21.3603 4.52574C21.3603 3.6831 22.0434 3 22.8861 3H25.9375C27.1515 3 28.3154 3.48259 29.1738 4.34098C30.0322 5.19937 30.5148 6.36326 30.5148 7.57721V10.6287C30.5148 11.4713 29.8317 12.1544 28.989 12.1544C28.1464 12.1544 27.4633 11.4713 27.4633 10.6287Z" fill="black"/>
<path d="M21.3603 12.1544V10.6287C21.3603 9.78603 22.0434 9.10294 22.8861 9.10294C23.7287 9.10294 24.4118 9.78603 24.4118 10.6287V12.1544C24.4118 12.9971 23.7287 13.6801 22.8861 13.6801C22.0434 13.6801 21.3603 12.9971 21.3603 12.1544Z" fill="black"/>
<path d="M27.4633 28.9375V25.8861C27.4633 25.0434 28.1464 24.3603 28.989 24.3603C29.8317 24.3603 30.5148 25.0434 30.5148 25.8861V28.9375C30.5148 30.1515 30.0322 31.3154 29.1738 32.1738C28.3154 33.0322 27.1515 33.5147 25.9375 33.5147H22.8861C22.0434 33.5147 21.3603 32.8317 21.3603 31.989C21.3603 31.1464 22.0434 30.4633 22.8861 30.4633H25.9375C26.3422 30.4633 26.7302 30.3024 27.0163 30.0163C27.3024 29.7301 27.4633 29.3422 27.4633 28.9375Z" fill="black"/>
<path d="M0 10.6287V7.57721C0 6.36326 0.482586 5.19937 1.34098 4.34098C2.19937 3.48259 3.36326 3 4.57721 3H7.62869C8.47133 3 9.15443 3.6831 9.15443 4.52574C9.15443 5.36838 8.47133 6.05148 7.62869 6.05148H4.57721C4.17256 6.05148 3.7846 6.21234 3.49847 6.49847C3.21234 6.7846 3.05148 7.17256 3.05148 7.57721V10.6287C3.05148 11.4713 2.36838 12.1544 1.52574 12.1544C0.683096 12.1544 0 11.4713 0 10.6287Z" fill="black"/>
<path d="M7.64359 24.3603C8.48623 24.3603 9.16933 25.0434 9.16933 25.8861C9.16933 26.7287 8.48623 27.4118 7.64359 27.4118H7.62869C6.78605 27.4118 6.10295 26.7287 6.10295 25.8861C6.10295 25.0434 6.78605 24.3603 7.62869 24.3603H7.64359Z" fill="black"/>
<path d="M0 28.9375V25.8861C0 25.0434 0.683096 24.3603 1.52574 24.3603C2.36838 24.3603 3.05148 25.0434 3.05148 25.8861V28.9375L3.05893 29.088C3.09354 29.4374 3.24803 29.7658 3.49847 30.0163C3.7846 30.3024 4.17256 30.4633 4.57721 30.4633H7.62869C8.47133 30.4633 9.15443 31.1464 9.15443 31.989C9.15443 32.8317 8.47133 33.5147 7.62869 33.5147H4.57721C3.36326 33.5147 2.19937 33.0322 1.34098 32.1738C0.482587 31.3154 0 30.1515 0 28.9375Z" fill="black"/>
<path d="M9.09945 12.0994V16.6767H13.6767V12.0994H9.09945ZM16.7281 16.6767C16.7281 18.3619 15.3619 19.7281 13.6767 19.7281H9.09945C7.41417 19.7281 6.04797 18.3619 6.04797 16.6767V12.0994C6.04797 10.4142 7.41417 9.04797 9.09945 9.04797H13.6767C15.3619 9.04797 16.7281 10.4142 16.7281 12.0994V16.6767Z" fill="#2199FF"/>
<path d="M49.1435 21.7682H52.6753L54.767 24.4801L56.2597 26.246L59.844 30.85H56.0599L53.6213 27.7597L52.5807 26.2881L49.1435 21.7682ZM60.3591 18.2364C60.3591 20.5559 59.9246 22.5425 59.0557 24.1963C58.1938 25.8431 57.0165 27.1045 55.5239 27.9804C54.0383 28.8563 52.3529 29.2943 50.4679 29.2943C48.5829 29.2943 46.894 28.8563 45.4014 27.9804C43.9158 27.0974 42.7385 25.8326 41.8696 24.1858C41.0077 22.532 40.5767 20.5489 40.5767 18.2364C40.5767 15.9169 41.0077 13.9337 41.8696 12.2869C42.7385 10.6331 43.9158 9.36828 45.4014 8.49233C46.894 7.61638 48.5829 7.17841 50.4679 7.17841C52.3529 7.17841 54.0383 7.61638 55.5239 8.49233C57.0165 9.36828 58.1938 10.6331 59.0557 12.2869C59.9246 13.9337 60.3591 15.9169 60.3591 18.2364ZM56.4384 18.2364C56.4384 16.6036 56.1826 15.2266 55.671 14.1054C55.1665 12.9772 54.4657 12.1258 53.5688 11.5511C52.6718 10.9695 51.6382 10.6787 50.4679 10.6787C49.2976 10.6787 48.264 10.9695 47.367 11.5511C46.4701 12.1258 45.7658 12.9772 45.2543 14.1054C44.7497 15.2266 44.4974 16.6036 44.4974 18.2364C44.4974 19.8691 44.7497 21.2496 45.2543 22.3778C45.7658 23.4991 46.4701 24.3505 47.367 24.9321C48.264 25.5067 49.2976 25.794 50.4679 25.794C51.6382 25.794 52.6718 25.5067 53.5688 24.9321C54.4657 24.3505 55.1665 23.4991 55.671 22.3778C56.1826 21.2496 56.4384 19.8691 56.4384 18.2364ZM64.0749 29V7.47273H72.1476C73.8014 7.47273 75.1889 7.76004 76.3101 8.33466C77.4383 8.90928 78.2897 9.71515 78.8643 10.7523C79.446 11.7824 79.7368 12.9842 79.7368 14.3577C79.7368 15.7382 79.4425 16.9365 78.8538 17.9526C78.2722 18.9616 77.4138 19.743 76.2786 20.2966C75.1433 20.8432 73.7488 21.1165 72.095 21.1165H66.3453V17.879H71.5695C72.5365 17.879 73.3284 17.7458 73.945 17.4795C74.5617 17.2062 75.0172 16.8103 75.3115 16.2918C75.6128 15.7662 75.7635 15.1215 75.7635 14.3577C75.7635 13.5938 75.6128 12.9421 75.3115 12.4026C75.0102 11.856 74.5512 11.4425 73.9345 11.1622C73.3179 10.8749 72.5225 10.7312 71.5484 10.7312H67.9746V29H64.0749ZM75.1959 19.2455L80.5251 29H76.1734L70.9388 19.2455H75.1959ZM83.3264 29V7.47273H97.1173V10.7418H87.2261V16.5861H96.1713V19.8551H87.2261V29H83.3264ZM104.307 7.47273V29H100.502V7.47273H104.307ZM115.368 29.3153C113.749 29.3153 112.351 28.979 111.174 28.3062C110.003 27.6265 109.103 26.6665 108.472 25.4261C107.842 24.1788 107.526 22.7107 107.526 21.0219C107.526 19.3611 107.842 17.9035 108.472 16.6491C109.11 15.3878 110 14.4067 111.142 13.706C112.284 12.9982 113.626 12.6443 115.168 12.6443C116.163 12.6443 117.102 12.8055 117.985 13.1278C118.875 13.4432 119.66 13.9337 120.34 14.5994C121.026 15.2652 121.566 16.1131 121.958 17.1432C122.351 18.1663 122.547 19.3856 122.547 20.8011V21.9679H109.313V19.4031H118.9C118.892 18.6743 118.735 18.0261 118.426 17.4585C118.118 16.8839 117.687 16.4319 117.134 16.1026C116.587 15.7732 115.949 15.6085 115.221 15.6085C114.443 15.6085 113.759 15.7977 113.171 16.1761C112.582 16.5475 112.123 17.0381 111.794 17.6477C111.471 18.2504 111.307 18.9126 111.3 19.6344V21.8733C111.3 22.8123 111.471 23.6182 111.815 24.2909C112.158 24.9566 112.638 25.4682 113.255 25.8256C113.872 26.1759 114.593 26.3511 115.42 26.3511C115.974 26.3511 116.475 26.2741 116.923 26.1199C117.372 25.9587 117.761 25.724 118.09 25.4156C118.419 25.1073 118.668 24.7254 118.836 24.2699L122.389 24.6693C122.165 25.6083 121.738 26.4282 121.107 27.129C120.483 27.8227 119.684 28.3623 118.71 28.7477C117.736 29.1261 116.622 29.3153 115.368 29.3153ZM128.531 12.8545L131.789 18.8145L135.1 12.8545H139.126L134.259 20.9273L139.21 29H135.205L131.789 23.1872L128.404 29H124.368L129.287 20.9273L124.494 12.8545H128.531Z" fill="#2199FF"/>
</svg>
