<svg width="150" height="31" viewBox="0 0 150 31" fill="none" xmlns="http://www.w3.org/2000/svg">
<path d="M136.973 9.53021L141.423 17.1246L145.873 9.53021H149.162L143.164 18.8176L149.162 28.105H145.873L141.423 20.8976L136.973 28.105H133.683L139.585 18.8176L133.683 9.53021H136.973Z" fill="#2199FF"/>
<path d="M123.311 28.492C121.521 28.492 119.977 28.097 118.679 27.3069C117.389 26.5088 116.393 25.3962 115.692 23.9692C114.999 22.5342 114.652 20.8654 114.652 18.9627C114.652 17.0601 114.999 15.3832 115.692 13.9321C116.393 12.4728 117.369 11.3361 118.619 10.5218C119.876 9.69951 121.343 9.28835 123.02 9.28835C123.988 9.28835 124.943 9.44959 125.886 9.77207C126.83 10.0945 127.688 10.6186 128.462 11.3442C129.236 12.0617 129.853 13.013 130.312 14.1981C130.772 15.3832 131.002 16.8424 131.002 18.5758V19.7851H116.684V17.3181H128.099C128.099 16.27 127.89 15.3348 127.471 14.5125C127.059 13.6902 126.471 13.0412 125.705 12.5655C124.947 12.0899 124.052 11.8521 123.02 11.8521C121.884 11.8521 120.9 12.1342 120.07 12.6986C119.247 13.2548 118.614 13.9804 118.171 14.8753C117.728 15.7702 117.506 16.7296 117.506 17.7534V19.3981C117.506 20.8009 117.748 21.99 118.232 22.9655C118.723 23.9329 119.405 24.6706 120.275 25.1785C121.146 25.6784 122.158 25.9283 123.311 25.9283C124.06 25.9283 124.738 25.8235 125.342 25.6139C125.955 25.3962 126.483 25.0737 126.926 24.6464C127.37 24.2111 127.712 23.6709 127.954 23.026L130.712 23.7999C130.421 24.7351 129.934 25.5574 129.248 26.2669C128.563 26.9683 127.716 27.5165 126.709 27.9115C125.701 28.2985 124.568 28.492 123.311 28.492Z" fill="#2199FF"/>
<path d="M110.296 3.3386V28.105H107.442V3.3386H110.296Z" fill="#2199FF"/>
<path d="M87.8419 28.105V3.3386H102.692V5.99906H90.841V14.3674H101.58V17.0279H90.841V28.105H87.8419Z" fill="#2199FF"/>
<path d="M64.1699 28.105V3.3386H74.4006C76.2548 3.3386 77.8551 3.67318 79.2015 4.34232C80.5559 5.0034 81.5999 5.95472 82.3336 7.19626C83.0672 8.42975 83.434 9.893 83.434 11.586C83.434 13.3032 83.0591 14.7624 82.3094 15.9637C81.5596 17.1568 80.4954 18.0679 79.1168 18.6967C77.7382 19.3175 76.1057 19.6278 74.2192 19.6278H67.7494V14.9116H73.1066C74.0096 14.9116 74.7634 14.7947 75.368 14.5609C75.9807 14.319 76.4443 13.9562 76.7587 13.4725C77.0731 12.9807 77.2303 12.3519 77.2303 11.586C77.2303 10.8201 77.0731 10.1873 76.7587 9.68742C76.4443 9.17951 75.9807 8.8006 75.368 8.55068C74.7553 8.29269 74.0015 8.1637 73.1066 8.1637H70.1559V28.105H64.1699ZM78.1131 16.786L84.2805 28.105H77.7503L71.7038 16.786H78.1131Z" fill="#2199FF"/>
<path d="M46.7348 19.2046H51.572L53.6278 21.8288L56.3246 24.9246L60.4725 30.0399H55.0548L52.1525 26.5692L50.4353 24.1022L46.7348 19.2046ZM60.6418 15.7218C60.6418 18.4468 60.1177 20.7565 59.0697 22.6511C58.0216 24.5457 56.6027 25.9847 54.813 26.9683C53.0313 27.9518 51.0319 28.4436 48.8148 28.4436C46.5897 28.4436 44.5863 27.9478 42.8046 26.9562C41.0229 25.9646 39.6081 24.5255 38.56 22.639C37.52 20.7444 37 18.4387 37 15.7218C37 12.9969 37.52 10.6871 38.56 8.79254C39.6081 6.89797 41.0229 5.45891 42.8046 4.47534C44.5863 3.49178 46.5897 3 48.8148 3C51.0319 3 53.0313 3.49178 54.813 4.47534C56.6027 5.45891 58.0216 6.89797 59.0697 8.79254C60.1177 10.6871 60.6418 12.9969 60.6418 15.7218ZM54.5227 15.7218C54.5227 14.1094 54.293 12.7469 53.8334 11.6344C53.382 10.5218 52.7289 9.67935 51.8744 9.10695C51.0279 8.53455 50.008 8.24835 48.8148 8.24835C47.6297 8.24835 46.6099 8.53455 45.7553 9.10695C44.9007 9.67935 44.2437 10.5218 43.7842 11.6344C43.3327 12.7469 43.107 14.1094 43.107 15.7218C43.107 17.3342 43.3327 18.6967 43.7842 19.8092C44.2437 20.9218 44.9007 21.7643 45.7553 22.3367C46.6099 22.9091 47.6297 23.1953 48.8148 23.1953C50.008 23.1953 51.0279 22.9091 51.8744 22.3367C52.7289 21.7643 53.382 20.9218 53.8334 19.8092C54.293 18.6967 54.5227 17.3342 54.5227 15.7218Z" fill="#2199FF"/>
<path d="M21.3603 21.3603V15.2574C21.3603 14.4147 22.0434 13.7316 22.8861 13.7316C23.7287 13.7316 24.4118 14.4147 24.4118 15.2574V21.3603C24.4118 22.1696 24.0901 22.9455 23.5178 23.5178C22.9456 24.0901 22.1696 24.4118 21.3603 24.4118H15.2574C14.4147 24.4118 13.7316 23.7287 13.7316 22.8861C13.7316 22.0434 14.4147 21.3603 15.2574 21.3603H21.3603Z" fill="black"/>
<path d="M27.4633 7.62869V4.57721C27.4633 4.17256 27.3024 3.7846 27.0163 3.49847C26.7658 3.24803 26.4374 3.09354 26.088 3.05893L25.9375 3.05148H22.8861C22.0434 3.05148 21.3603 2.36838 21.3603 1.52574C21.3603 0.683096 22.0434 0 22.8861 0H25.9375C27.1515 0 28.3154 0.482587 29.1738 1.34098C30.0322 2.19937 30.5148 3.36326 30.5148 4.57721V7.62869C30.5148 8.47133 29.8317 9.15443 28.989 9.15443C28.1464 9.15443 27.4633 8.47133 27.4633 7.62869Z" fill="black"/>
<path d="M21.3603 9.15442V7.62868C21.3603 6.78604 22.0434 6.10294 22.8861 6.10294C23.7287 6.10294 24.4118 6.78604 24.4118 7.62868V9.15442C24.4118 9.99706 23.7287 10.6802 22.8861 10.6802C22.0434 10.6802 21.3603 9.99706 21.3603 9.15442Z" fill="black"/>
<path d="M27.4633 25.9375V22.8861C27.4633 22.0434 28.1464 21.3603 28.989 21.3603C29.8317 21.3603 30.5148 22.0434 30.5148 22.8861V25.9375C30.5148 27.1515 30.0322 28.3154 29.1738 29.1738C28.3154 30.0322 27.1515 30.5147 25.9375 30.5147H22.8861C22.0434 30.5147 21.3603 29.8317 21.3603 28.989C21.3603 28.1464 22.0434 27.4633 22.8861 27.4633H25.9375C26.3422 27.4633 26.7302 27.3024 27.0163 27.0163C27.3024 26.7301 27.4633 26.3422 27.4633 25.9375Z" fill="black"/>
<path d="M0 7.62869V4.57721C0 3.36326 0.482586 2.19937 1.34098 1.34098C2.19937 0.482586 3.36326 0 4.57721 0H7.62869C8.47133 0 9.15443 0.683096 9.15443 1.52574C9.15443 2.36838 8.47133 3.05148 7.62869 3.05148H4.57721C4.17256 3.05148 3.7846 3.21234 3.49847 3.49847C3.21234 3.7846 3.05148 4.17256 3.05148 4.57721V7.62869C3.05148 8.47133 2.36838 9.15443 1.52574 9.15443C0.683096 9.15443 0 8.47133 0 7.62869Z" fill="black"/>
<path d="M7.64359 21.3603C8.48623 21.3603 9.16933 22.0434 9.16933 22.8861C9.16933 23.7287 8.48623 24.4118 7.64359 24.4118H7.62869C6.78605 24.4118 6.10295 23.7287 6.10295 22.8861C6.10295 22.0434 6.78605 21.3603 7.62869 21.3603H7.64359Z" fill="black"/>
<path d="M0 25.9375V22.8861C0 22.0434 0.683096 21.3603 1.52574 21.3603C2.36838 21.3603 3.05148 22.0434 3.05148 22.8861V25.9375L3.05893 26.088C3.09354 26.4374 3.24803 26.7658 3.49847 27.0163C3.7846 27.3024 4.17256 27.4633 4.57721 27.4633H7.62869C8.47133 27.4633 9.15443 28.1464 9.15443 28.989C9.15443 29.8317 8.47133 30.5147 7.62869 30.5147H4.57721C3.36326 30.5147 2.19937 30.0322 1.34098 29.1738C0.482587 28.3154 0 27.1515 0 25.9375Z" fill="black"/>
<path d="M9.09945 9.09945V13.6767H13.6767V9.09945H9.09945ZM16.7281 13.6767C16.7281 15.3619 15.3619 16.7281 13.6767 16.7281H9.09945C7.41417 16.7281 6.04797 15.3619 6.04797 13.6767V9.09945C6.04797 7.41416 7.41417 6.04797 9.09945 6.04797H13.6767C15.3619 6.04797 16.7281 7.41416 16.7281 9.09945V13.6767Z" fill="#2199FF"/>
</svg>
